<svg version="1.2" xmlns="http://www.w3.org/2000/svg" viewBox="0 0 696 632" width="696" height="632"><style>.a{fill:#0b4776}.b{fill:#fbe606}.c{fill:#1998d5}</style><path fill-rule="evenodd" class="a" d="m122 0.1c0.8-0.1 16.8 15.3 35.5 34.1 18.7 18.9 44.2 44.6 79.6 80.3l-117.6 41.7-56.7-57.3c-31.2-31.6-56.8-57.6-56.8-57.9 0-0.3 25.8-9.6 57.3-20.7 31.4-11 57.9-20.2 58.7-20.2zm122.1 122.2c0.4 0.1 14.1 13.8 30.5 30.5 16.5 16.6 29.7 30.4 29.4 30.6-0.3 0.1-15.6 5.8-34 12.6-18.4 6.7-36 13.1-44.5 16.2l10.7 10.6c6 5.9 10.8 11 10.8 11.4 0 0.5-2.9 5.2-12.8 20.3l14.4 14.5c7.9 8 14.5 14.3 14.7 14 0.1-0.3 3.2-4.9 13.2-20.1l12.5 12.5c6.9 6.9 12.9 12.6 13.5 12.6 0.6 0 37.9-13.5 83-30.1 45.1-16.6 83.7-30.7 89.5-32.9l0.1 116.5-9.1 3.2c-4.9 1.8-8.8 3.7-8.5 4.3 0.3 0.6 3.7 1.6 14.6 3.5l29.7 30.5c16.3 16.8 39.3 40.3 72.2 74l-5.7 1.9c-3.2 1-29.8 10.2-112.3 39.1l-35.7-36.3c-19.7-19.9-42.8-43.3-66.8-67.6l2.8-4.8c1.5-2.6 2.6-4.9 2.5-5-0.2-0.1-12.9 4.3-56.3 19.9l-55.5-55.7 4.8-4.1c2.6-2.2 7-7 9.8-10.5 2.9-3.5 6.8-9.3 8.7-12.9 1.9-3.6 4.3-9 5.1-12 0.9-3 1.6-9 1.6-13.3 0-4.2-0.3-8.5-0.7-9.5-0.5-1.1-1.1 1-1.9 5.8-0.7 4.1-2.2 10.2-3.5 13.5-1.2 3.3-4.4 9.1-7 13-2.6 3.9-8.5 10.6-13 15-4.6 4.5-11.8 10.4-15.9 13.2-4.1 2.7-10.9 6.7-15 8.8-4.1 2.1-10.4 4.9-14 6.2-3.6 1.4-10.6 3.6-15.5 5-6.9 1.9-12.4 2.6-23.5 3-11.4 0.5-16.1 0.2-22-1.1-4.1-0.9-10.3-3-13.7-4.6-3.5-1.7-8.7-5.3-11.5-8.2-2.9-2.8-5.5-5.1-5.8-5-0.3 0.1-1.5-2.8-2.7-6.3-1.5-4.3-2.3-8.8-2.3-13.3 0-3.7 0.5-8.7 1.1-11.2 0.6-2.5 2.6-7.6 4.6-11.5 1.9-3.9 5.4-9.5 7.8-12.5 2.3-3 7.8-8.8 12.1-12.9 4.3-4 10.8-9.3 14.4-11.6 3.6-2.4 10.3-6.3 15-8.7 4.7-2.4 13.4-6 19.5-8 6.1-2 14.4-4.1 18.5-4.7 4.1-0.6 7.6-1.2 7.7-1.3 0.2-0.2-18.4-19.3-41.2-42.6-24.1-24.5-41-42.4-40.2-42.7 0.6-0.3 24.8-8.8 53.7-19 28.9-10.2 53.9-19.2 55.5-19.9 1.6-0.7 3.7-1.6 4.5-1.9 0.8-0.3 1.8-0.5 2.1-0.4zm173.8 30.7c0.3 0 8.7 8.1 18.6 18 9.9 9.9 17.5 18 17 18-0.5 0-4.6 4.9-17 22.1l-35.4-35.6 3-4c1.7-2.2 5.3-7.3 8.1-11.3 2.8-3.9 5.3-7.2 5.7-7.2zm162.6 311.2c0.6 0.2 26.2 25.9 57 57.1 30.8 31.3 56.1 57.1 56.2 57.5 0.2 0.4-25.7 9.8-57.5 21-31.7 11.1-58.2 20.3-58.7 20.3-0.5 0-26.3-25.7-57.3-57.1-30.9-31.3-55.9-57.2-55.5-57.4 0.5-0.2 24.7-8.8 53.8-19 29.1-10.3 54.8-19.6 57-20.6 2.2-1.1 4.5-1.9 5-1.8z"/><path fill-rule="evenodd" class="b" d="m327.5 111.5c10.9 0.2 21.1 1.1 28.5 2.4 6.3 1.1 15.6 3.2 20.5 4.6 4.9 1.4 12.1 3.8 16 5.2 3.9 1.4 11.8 5 17.8 8 5.9 2.9 14 7.4 17.9 9.9 4 2.6 10.2 6.9 13.8 9.7 3.6 2.8 9.4 7.6 12.9 10.6 3.5 3.1 9.9 9.7 14.3 14.6 4.4 4.9 11.6 14.4 16 21 4.5 6.6 10.7 17.4 13.9 24 3.1 6.6 7.3 16.8 9.3 22.8 2 5.9 4.7 16.2 6.1 22.9 1.4 6.8 2.9 18.4 3.4 25.8 0.5 8 0.5 19 0 27-0.5 7.4-2 19-3.4 25.8-1.4 6.7-4.3 17.5-6.5 23.9-2.2 6.5-4.4 12.2-5 12.8-0.6 0.7-6-4.2-30.7-30l-7.1-1.2c-4-0.7-7.4-1.7-7.7-2.3-0.3-0.6 3.6-2.5 17.6-7.5l-0.1-117-21-21v-15l-18-18c-17.4-17.3-18.2-17.9-19.6-16-0.9 1.1-2.4 3.1-5.3 7l-6.3-6.2c-3.5-3.5-6.7-6.3-7.3-6.3-0.6 0-21.7 7.7-93 34l-27.8-28c-15.2-15.4-27.7-28.4-27.7-29 0-0.6 5.5-2.8 12.2-4.9 6.8-2.2 16.8-4.9 22.3-6 5.5-1.1 13.8-2.5 18.5-3 4.7-0.5 16.1-0.8 25.5-0.6zm-176.6 102.5c0.3 0 2.6 2 9.6 8.9l-4.6 10.8c-2.6 6-5.6 13.7-6.7 17.3-1.2 3.6-2.8 9.2-3.6 12.5-0.9 3.3-1.6 7.1-1.6 8.5 0 1.8-2 4.3-15 16v-4c0-2.2 0.9-8.6 2-14.3 1.1-5.6 3.1-13.8 4.4-18.2 1.3-4.4 3.6-11.1 5-15 1.5-3.9 4.3-10.5 6.3-14.8 1.9-4.2 3.8-7.7 4.2-7.7zm32.2 31.5c3.1 3.1 4.8 5.6 4.4 6.5-0.3 0.8-3.3 2.5-6.8 3.7-3.4 1.2-7 2.5-8.1 3-1.6 0.7-1.6 0.1 0.9-6.7 1.5-4.1 3.2-8.4 3.7-9.5 0.9-1.9 1.3-1.7 5.9 3zm63.9 103.6c0.3-0.1 12.9 12.3 55.5 55.1l28-10.1c15.4-5.5 28.1-9.9 28.3-9.8 0.1 0.1-0.9 2.2-2.3 4.7-1.9 3.4-2.5 6-2.5 16.5l6.5 6.5c3.6 3.6 6.5 6.8 6.5 7.3 0 0.4-2.8 1.6-6.3 2.7-3.4 1.1-9.6 2.7-13.7 3.4-4.1 0.8-11.8 1.8-17 2.2-5.5 0.4-13.7 0.2-19.5-0.5-5.5-0.6-14.3-2.3-19.5-3.7-5.2-1.4-14-4.6-19.5-7.2-5.5-2.7-13.6-7.2-17.9-10.2-4.4-3-11.4-8.9-15.5-13-4.2-4.1-9.7-10.4-12.2-14-2.6-3.6-5.4-7.7-7.9-12l7.7-4.1c4.3-2.2 10.7-6.2 14.3-8.9 3.6-2.7 6.7-4.9 7-4.9zm-101.9 27.6c3 0.7 6.4 1.3 7.6 1.3 1.9 0 3 1.5 6.2 8.3 2.2 4.5 6.5 12.3 9.6 17.2 3.1 4.9 8.9 13.1 13 18 4 4.9 11 12.6 15.6 16.9 4.6 4.3 11.8 10.5 15.9 13.6 4.1 3.1 10.6 7.7 14.5 10 3.9 2.4 11.9 6.7 18 9.6 6.1 2.8 15.9 6.8 22 8.7 6.1 1.9 14.6 4.2 19 5.1 4.4 0.9 12.1 2 17 2.6 4.9 0.5 14.2 1 20.5 1 6.3 0 16.2-0.7 22-1.4 5.8-0.8 13.6-2.2 17.5-3 3.9-0.9 11.3-3 16.5-4.7 5.2-1.7 12.6-4.6 23.5-9.7l5 4.9c2.7 2.7 4.8 5.1 4.5 5.3-0.3 0.2-3.6 1.9-7.5 3.6-3.9 1.8-10.6 4.5-15 6.2-4.4 1.6-12.9 4.2-19 5.8-6.1 1.5-17.1 3.6-24.5 4.5-10.2 1.3-17.5 1.6-30 1.2-9.1-0.3-20.6-1.3-25.5-2.2-4.9-0.8-12.8-2.5-17.5-3.6-4.7-1.2-12.8-3.7-18-5.6-5.2-1.9-14.4-6-20.5-9-6.1-3-14.8-8.1-19.5-11.2-4.7-3-11.9-8.3-16-11.6-4.1-3.2-11.3-9.8-15.9-14.5-4.7-4.7-11.6-12.6-15.4-17.5-3.8-4.9-9.3-12.8-12.2-17.5-2.8-4.7-6.6-11.2-8.2-14.5-1.7-3.3-4.3-8.9-5.7-12.5-1.4-3.6-2.7-6.5-2.8-6.6-0.1-0.1 2.3 0.5 5.3 1.3zm49.4 0.1c0.5 0.8 3.6 5.3 6.7 10.1 3.1 4.7 8.5 11.8 12 15.7 3.5 3.9 9.4 9.9 13.3 13.4 3.9 3.5 11.3 9.1 16.5 12.6 5.2 3.4 13.1 7.9 17.5 10 4.4 2 11.8 5 16.5 6.6 4.7 1.5 13.4 3.8 19.5 5 8.5 1.7 14.6 2.2 26.5 2.1 9.9 0 18.7-0.6 24.5-1.6 4.9-0.9 13.6-3.1 29.5-8.2l4.5 4.5c2.5 2.5 4.5 4.8 4.5 5.3 0 0.4-2.8 1.8-6.3 3.1-3.4 1.3-9.6 3.3-13.7 4.5-4.1 1.1-11.8 2.8-17 3.7-6.5 1.2-14.7 1.8-26 1.7-11 0-19.7-0.5-26-1.7-5.2-0.9-13.6-2.8-18.5-4.2-4.9-1.4-13.1-4.4-18-6.5-4.9-2.1-12.6-6-17-8.6-4.4-2.5-11.3-7-15.3-10-3.9-2.9-10.9-8.8-15.3-13-4.5-4.3-11.3-11.9-15.2-16.8-3.8-4.9-9.1-12.8-11.9-17.5-2.7-4.7-4.8-8.6-4.6-8.8 0.2-0.1 3-0.8 6.3-1.5 5-1 6.2-1 7 0.1z"/><path fill-rule="evenodd" class="c" d="m5.7 42c0.4 0 26.2 25.7 113.8 114.2l58.3-20.6c32-11.3 58.4-20.6 58.7-20.6 0.3 0 0.4 2.3 0 10.2l-53.5 18.9c-29.4 10.4-54.1 19.1-54.8 19.4-0.7 0.3 16.2 18.2 81.9 85l-3.3 0.9c-2 0.6-4.1 0.6-5.4 0-1.2-0.5-18.6-17.5-75.3-74.9l-0.1-4.7c0-2.7-0.4-4.8-1-4.8-0.6 0-2.1 0.4-3.5 1-2.4 0.9-5.4-2-116-114.1l-0.3-5c-0.2-2.7 0.1-4.9 0.5-4.9zm53 78c0.2 0 5.8 5.7 24.9 25.5l-6.3 10c-3.5 5.5-9.5 16.3-13.2 24-3.8 7.7-8.5 18.3-10.4 23.5-2 5.2-5.2 14.9-7.2 21.5-2 6.6-4.7 17.4-6 24-1.4 6.6-3.2 18.3-4.1 26-1.2 10.8-1.5 19.6-1.1 38.5 0.3 15.4 1.1 28.4 2.2 35 0.9 5.8 2.7 15.7 4.1 22 1.4 6.3 5 18.7 7.9 27.5 2.9 8.8 7.8 21.4 10.7 28 3 6.6 8.3 16.9 11.7 23 3.5 6.1 9.3 15.3 12.9 20.5 3.5 5.2 9 12.6 12.1 16.5 3.1 3.9 9.2 11 13.6 15.9 4.4 4.9 12.7 13.2 18.5 18.4 5.8 5.2 15.4 13.2 21.5 17.7 6.1 4.6 15.8 11.3 21.7 14.9 6 3.6 15.7 9.1 21.8 12.1 6.1 3 15.4 7.2 20.7 9.4 5.4 2.1 15.4 5.7 22.3 7.9 6.9 2.2 17 5 22.5 6.2 5.5 1.2 15.9 3 23 4.1 7.1 1.1 21.3 2.2 31.5 2.6 11.2 0.3 23.8 0.1 32-0.6 7.4-0.6 18.7-2.1 25-3.1 6.3-1.1 15.3-2.9 20-4 4.7-1.2 12.3-3.2 17-4.7 4.7-1.4 13.7-4.5 20-7 6.3-2.5 17.1-7.3 24-10.7 6.9-3.5 16.1-8.6 28.5-16.4l25.5 25.3-8.8 5.6c-4.8 3.1-13.2 8.2-18.7 11.2-5.5 3.1-15.1 7.9-21.3 10.7-6.1 2.7-15.8 6.7-21.5 8.9-5.6 2.1-14.9 5.2-20.7 6.9-5.8 1.6-15.7 4.1-22 5.5-6.3 1.4-16.2 3.3-22 4.1-5.8 0.8-16.4 2-23.5 2.6-7.1 0.5-18.2 1-24.5 1-6.3 0-17.4-0.5-24.5-1-7.1-0.6-18.6-1.9-25.5-3-6.9-1-18.1-3.2-25-4.8-6.9-1.7-17.7-4.7-24-6.7-6.3-2-16.4-5.7-22.5-8.2-6.1-2.5-17.5-7.8-25.5-11.8-8-4.1-19.7-10.7-26-14.7-6.3-4-15.3-10.2-20-13.8-4.7-3.5-12.6-9.8-17.5-14.1-4.9-4.2-14.7-13.5-21.6-20.5-6.9-7.1-16.3-17.6-20.9-23.4-4.6-5.8-11.8-15.7-16-22-4.2-6.3-10.2-16.2-13.5-22-3.3-5.8-8.5-16.1-11.6-23-3.1-6.9-7.4-17-9.4-22.5-2-5.5-5.3-15.4-7.2-22-1.9-6.6-4.7-18.5-6.3-26.5-1.6-8-3.6-21.1-4.5-29.2-0.8-8.2-1.5-23.6-1.5-34.3 0-10.7 0.7-26.1 1.5-34.3 0.9-8.1 2.9-21.2 4.5-29.2 1.6-8 4.4-19.9 6.3-26.5 1.9-6.6 5.2-16.5 7.2-22 2.1-5.5 6.3-15.6 9.4-22.5 3-6.9 8.4-17.4 11.9-23.5 3.4-6.1 8.8-14.9 12-19.8 3.1-4.8 5.8-8.7 5.9-8.7zm338.3 29.1c0.8-0.1 4.4 2.8 14.5 12.8l-2.8 3.5c-1.5 2-3.8 5.1-7.6 10.1l35.4 35.6 8-11.1c4.4-6.1 8.3-11 8.7-11 0.5 0 0.8 3.3 0.8 14.5l10.8 10.7c10.4 10.4 10.6 10.7 8.2 11.6-1.4 0.5-39 14.3-83.5 30.7-44.6 16.4-82.5 30.3-87.6 32l-25.4-25.6-6.5 9.8c-3.5 5.4-6.6 10-6.7 10.3-0.2 0.3-6.8-6-29.1-28.5l6.4-9.8c3.5-5.3 6.4-10 6.4-10.5 0-0.4-4.8-5.5-21.5-22l5.5-2c3-1.1 19.9-7.3 37.5-13.7 17.6-6.5 33.1-12.2 34.5-12.8 1.4-0.6 22.7-8.6 47.5-17.8 24.7-9.2 45.7-16.8 46.5-16.8zm-290.5 18.7l11.3 11.4c6.2 6.2 11.8 12.1 12.3 13 0.7 1.4-0.7 5.1-5.9 15.5-3.7 7.6-8.9 20.1-11.4 27.8-2.6 7.7-5.8 19.6-7.2 26.5-1.4 6.9-3 16.9-3.5 22.2-0.6 5.4-1.1 15.4-1.1 22.3 0 6.9 0.5 16.9 1.1 22.2 0.5 5.4 2.1 15.4 3.5 22.3 1.4 6.9 4.5 18.6 7 26 2.4 7.4 7.1 18.9 10.3 25.5 3.1 6.6 8.1 15.8 11 20.5 2.9 4.7 8.4 12.6 12.1 17.5 3.8 4.9 10.8 13.2 15.7 18.4 4.8 5.2 13.1 13 18.3 17.4 5.2 4.3 14.9 11.5 21.5 15.9 6.6 4.4 17.4 10.6 24 13.8 6.6 3.2 17.8 7.9 25 10.3 7.1 2.4 17 5.4 22 6.5 4.9 1.2 13.9 2.8 20 3.8 7.1 1.1 17.5 1.7 29.5 1.7 10.2 0.1 22.8-0.5 28-1.2 5.2-0.7 13.5-2.1 18.5-3.2 4.9-1 13-3.1 18-4.5 4.9-1.5 13.9-4.7 20-7.1 6-2.4 14.5-6.3 26.7-12.8l12.6 12.7c12.2 12.2 12.6 12.8 10.7 14.2-1.1 0.9-8.1 4.6-15.5 8.5-7.4 3.8-18.7 8.9-25 11.4-6.3 2.5-16.5 5.9-22.5 7.5-6.1 1.7-15.7 4-21.5 5.1-5.8 1.1-15 2.5-20.5 3.2-5.5 0.6-18.6 1.2-29 1.1-11.8 0-23.7-0.6-31.5-1.6-6.9-0.9-17.7-2.8-24-4.2-6.3-1.4-17.4-4.5-24.5-6.9-7.1-2.3-18-6.5-24-9.1-6.1-2.7-16.4-8-23-11.8-6.6-3.7-14.9-8.9-18.5-11.4-3.6-2.6-10.6-7.8-15.5-11.8-5-3.9-13.9-12-19.9-18-6-6-14.5-15.4-18.9-20.9-4.5-5.5-11.2-14.7-15-20.5-3.8-5.8-10.6-18.1-15.2-27.5-4.6-9.4-10-21.7-12-27.5-2-5.8-4.9-15.7-6.6-22-1.6-6.3-3.9-17.8-5.1-25.5-1.7-11.2-2.2-18.6-2.2-37 0-13.3 0.5-27 1.2-32.5 0.7-5.2 2.4-15.1 3.8-22 1.4-6.9 4.7-19 7.3-27 2.6-8 7.8-20.8 11.5-28.5 3.7-7.7 8.8-17.5 11.4-21.8zm169.7 118.4c0.4 0.7 0.8 4.8 0.8 9.2 0 4.5-0.7 10.5-1.6 13.5-0.8 3.1-3.2 8.5-5.1 12-1.9 3.6-5.8 9.4-8.7 13-2.8 3.5-8.8 9.6-13.3 13.5-4.5 3.8-11.7 9.2-16 11.8-4.3 2.6-12.1 6.6-17.3 8.8-5.2 2.3-13.5 5.2-18.5 6.5-4.9 1.2-12.6 2.8-17 3.5-4.8 0.8-12.2 1-18.5 0.7-5.8-0.4-13.2-1.3-16.5-2.2-3.3-0.9-8.2-2.7-11-4-2.7-1.4-7-4.2-9.4-6.3-2.5-2.1-5.7-5.8-7.3-8.3-1.6-2.4-2.8-5.3-2.8-6.2 0-1.2 1.7-0.1 5.5 3.7 3.2 3.2 8.1 6.8 11.8 8.5 3.4 1.7 9.6 3.8 13.7 4.7 5.9 1.3 10.6 1.5 22 1.1 11.1-0.5 16.6-1.2 23.5-3.1 5-1.4 11.9-3.6 15.5-4.9 3.6-1.4 9.9-4.2 14-6.3 4.1-2 10.9-6 15-8.8 4.1-2.8 11.3-8.7 15.9-13.1 4.6-4.5 10.4-11.2 13-15.1 2.6-3.8 5.8-9.7 7-13 1.3-3.3 2.8-9.2 3.5-13.2 0.6-3.9 1.4-6.6 1.8-6zm77.8 108.2l14.8 15c8.1 8.3 31 31.6 87.2 88.5l58.5-20.5c32.2-11.2 58.7-20.5 59-20.5 0.3 0 0.4 2.3 0 10.3l-52.5 18.3c-28.9 10.2-53.5 18.9-54.7 19.4-2.1 1 1.7 5.1 54 58.1 30.9 31.3 56.8 57 57.5 57 0.6-0.1 19.8-6.6 42.5-14.7 22.6-8 48.7-17.2 74.7-26.4l0.1 10.5-118.4 42-113.6-115-0.1-4.7c0-4.7-0.1-4.8-2.7-4.2-1.6 0.4-3.3 0.7-3.8 0.8-0.6 0.1-23.9-23-102.5-102.9z"/><path class="b" d="m421.1 361.3l7.3 1.6c4 0.8 7.3 1.8 7.4 2.1 0.1 0.3-13.4 5.3-30 11.3-16.7 5.9-30.4 10.6-30.5 10.5-0.2-0.2 1.2-2.8 6.2-11.2l19.8-7.1z"/><path class="c" d="m395.5 345c0.3 0 13.8 2.9 30 6.5 16.2 3.6 29.8 6.5 30.3 6.5 0.4 0 0 0.5-0.8 1-0.8 0.4-4.9 2-16.5 6.2l-7.5-1.7c-4.1-0.9-8.2-1.7-9-1.8-0.8-0.1-1.7-0.5-2-0.8-0.3-0.3-5.2-1.5-11-2.8-5.8-1.2-11.3-2.4-12.3-2.7-1.3-0.3-1.7-1.5-1.7-5.4 0-2.8 0.2-5 0.5-5zm-5.4 4c0.5 0 0.9 1.7 0.9 3.8 0 2.5-1.6 6.6-5 13-2.8 5-4.8 9.2-4.5 9.2 0.3 0-1.2 2.8-3.3 6.3-2.5 4-5.1 6.8-7.3 7.9-1.9 1-3.5 1.5-3.6 1.3-0.2-0.3 4.7-9.7 10.8-21 6.1-11.3 11.5-20.5 12-20.5z"/></svg>